<svg viewBox="0 0 375.98 44.9073" xmlns="http://www.w3.org/2000/svg" xmlns:xlink="http://www.w3.org/1999/xlink" width="375.980255" height="44.907349" fill="none" customFrame="#000000">
	<path id="矢量 12" d="M192.97 32.8271L192.97 2.3291Q192.97 1.95064 193.078 1.60585Q193.108 1.51025 193.146 1.41724Q193.265 1.12739 193.449 0.887826L193.449 0.887743L193.449 0.887701Q193.537 0.77319 193.64 0.670166Q193.788 0.522594 193.957 0.405662L193.957 0.405251Q194.152 0.27 194.376 0.175781Q194.794 0 195.299 0Q195.649 0 195.968 0.0983279Q196.592 0.290277 197.101 0.856934L216.7 26.0596L216.7 2.3291Q216.7 1.83971 216.875 1.42352L216.875 1.42349Q217.045 1.0175 217.382 0.681152Q217.718 0.344884 218.124 0.174623L218.124 0.174534L218.124 0.174494Q218.54 0 219.03 0Q219.519 0 219.935 0.174493L219.935 0.174534L219.935 0.174623Q220.341 0.344884 220.678 0.681152Q221.014 1.0175 221.184 1.42349L221.184 1.42352Q221.359 1.83971 221.359 2.3291L221.359 32.8271Q221.359 33.3325 221.183 33.75Q221.089 33.9738 220.953 34.1691Q220.836 34.3383 220.689 34.4861Q220.585 34.5891 220.471 34.6772Q220.231 34.8616 219.941 34.9805Q219.848 35.0186 219.753 35.0485Q219.408 35.1562 219.03 35.1562Q218.619 35.1562 218.254 35.0279Q217.7 34.8333 217.25 34.3433L197.628 9.14062L197.628 32.8271Q197.628 33.3165 197.454 33.7327Q197.283 34.1388 196.947 34.4751Q196.611 34.8114 196.205 34.9817Q195.788 35.1562 195.299 35.1562Q194.81 35.1562 194.394 34.9817Q193.987 34.8114 193.651 34.4751Q193.315 34.1388 193.145 33.7327Q192.97 33.3165 192.97 32.8271ZM254.955 10.5469L255.988 10.5469L255.988 2.28516Q255.988 1.81774 256.152 1.41755Q256.319 1.00879 256.658 0.670166Q256.97 0.357823 257.347 0.191054Q257.779 0 258.295 0Q258.762 0 259.162 0.163944L259.162 0.164014L259.162 0.164026Q259.571 0.331549 259.91 0.670166Q260.248 1.00879 260.416 1.41755Q260.58 1.81774 260.58 2.28516L260.58 10.5469L263.326 10.5469Q263.807 10.5469 264.214 10.7202Q264.606 10.8877 264.93 11.217Q265.254 11.5462 265.419 11.9416Q265.59 12.3512 265.59 12.832Q265.59 13.3626 265.391 13.8039Q265.228 14.1667 264.93 14.469Q264.606 14.7984 264.214 14.9659Q263.807 15.1392 263.326 15.1392L260.58 15.1392L260.58 26.1914Q260.58 28.3667 261.668 29.4598Q262.766 30.564 264.974 30.564Q265.455 30.564 265.861 30.7373Q266.254 30.9048 266.578 31.2341Q266.902 31.5632 267.067 31.9586Q267.238 32.3683 267.238 32.8491Q267.238 33.3797 267.039 33.821Q266.876 34.1837 266.578 34.4861Q266.254 34.8155 265.861 34.9829Q265.455 35.1562 264.974 35.1562Q260.47 35.1562 258.223 32.9041Q255.988 30.6629 255.988 26.1914L255.988 15.1392L254.955 15.1392Q254.535 15.1392 254.168 15.0007Q253.727 14.8345 253.362 14.469Q253.049 14.1567 252.883 13.7799Q252.692 13.3482 252.692 12.832Q252.692 12.3646 252.856 11.9644Q253.023 11.5557 253.362 11.217Q253.727 10.8516 254.168 10.6854Q254.535 10.5469 254.955 10.5469ZM354.711 32.8491L354.711 2.30713Q354.711 1.79092 354.902 1.35928Q355.069 0.982509 355.381 0.670166Q355.693 0.357823 356.07 0.191054Q356.502 0 357.018 0Q357.485 0 357.885 0.163944L357.885 0.164014L357.885 0.164026Q358.294 0.331549 358.633 0.670166Q358.945 0.982509 359.112 1.35928Q359.303 1.79092 359.303 2.30713L359.303 19.4458L372.443 10.8984Q372.642 10.7711 372.858 10.6899L372.859 10.6895Q373.239 10.5469 373.673 10.5469Q374.11 10.5469 374.493 10.6906Q374.534 10.7058 374.574 10.7227Q374.841 10.8351 375.063 11.0058Q375.188 11.1022 375.299 11.217Q375.37 11.2903 375.434 11.3688L375.436 11.3707Q375.65 11.6329 375.793 11.9531Q375.877 12.1406 375.924 12.337Q375.98 12.5779 375.98 12.832Q375.98 13.6506 375.591 14.1873Q375.395 14.4572 375.101 14.6558L365.895 20.6323L375.343 31.2671Q375.725 31.6888 375.878 32.1817Q375.98 32.5105 375.98 32.8711Q375.98 33.1252 375.924 33.3661Q375.877 33.5625 375.793 33.75Q375.65 34.0702 375.436 34.3325L375.434 34.334Q375.37 34.4127 375.299 34.4861Q375.188 34.601 375.063 34.6973Q374.841 34.8681 374.574 34.9805Q374.534 34.9973 374.493 35.0126Q374.11 35.1562 373.673 35.1562Q373.086 35.1562 372.624 34.9165Q372.359 34.7791 372.135 34.563L361.984 23.1592L359.303 24.917L359.303 32.8491Q359.303 33.3029 359.148 33.6959Q358.981 34.1211 358.633 34.4751Q358.285 34.8285 357.863 34.9986Q357.472 35.1562 357.018 35.1562Q356.516 35.1562 356.093 34.9724Q355.703 34.8023 355.381 34.4751Q355.033 34.1211 354.865 33.6959Q354.711 33.3029 354.711 32.8491ZM0 32.2618L0 2.30969C0 1.99319 0.0575371 1.69467 0.172634 1.41415C0.250607 1.22408 0.350033 1.05054 0.470913 0.893494C0.528469 0.818726 0.590889 0.747696 0.658169 0.68042C0.866787 0.471832 1.10775 0.309982 1.38108 0.194916C1.6544 0.0798187 1.95652 0.0222778 2.28741 0.0222778C2.96357 0.0222778 3.55339 0.30278 4.05692 0.863815L23.3057 25.6154L23.3057 2.30969C23.3057 1.67671 23.5287 1.13722 23.9746 0.691208C24.4206 0.245239 24.9601 0.0222778 25.5931 0.0222778C26.2262 0.0222778 26.7656 0.245239 27.2115 0.691208C27.6575 1.13722 27.8805 1.67671 27.8805 2.30969L27.8805 32.2618C27.8805 32.5927 27.823 32.8948 27.7078 33.1682C27.5927 33.4415 27.4309 33.6825 27.2223 33.8911C27.0137 34.0997 26.7691 34.2615 26.4886 34.3766C26.2081 34.4917 25.9096 34.5492 25.5931 34.5492C24.9169 34.5492 24.3343 34.2831 23.8451 33.7508L4.57482 8.99933L4.57482 32.2618C4.57482 32.8948 4.35182 33.4343 3.90586 33.8803C3.4599 34.3262 2.92042 34.5492 2.28741 34.5492C1.6544 34.5492 1.11492 34.3262 0.668961 33.8803C0.222996 33.4343 0 32.8948 0 32.2618ZM108.717 2.30969C108.717 1.67671 108.939 1.13722 109.386 0.691208C109.832 0.245239 110.371 0.0222778 111.004 0.0222778C111.637 0.0222778 112.176 0.245239 112.623 0.691208C113.069 1.13722 113.292 1.67671 113.292 2.30969L113.292 29.9744L129.303 29.9744C129.936 29.9744 130.475 30.1974 130.922 30.6434C131.368 31.0893 131.591 31.6289 131.591 32.2618C131.591 32.8948 131.368 33.4343 130.922 33.8803C130.475 34.3262 129.936 34.5492 129.303 34.5492L111.004 34.5492C110.673 34.5492 110.37 34.4917 110.097 34.3766C109.824 34.2615 109.584 34.0997 109.375 33.8911C109.167 33.6825 109.005 33.4415 108.889 33.1682C108.774 32.8948 108.717 32.5927 108.717 32.2618L108.717 2.30969ZM160.377 32.3049L160.377 2.28813C160.377 1.65515 160.59 1.11923 161.014 0.68042C161.439 0.241653 161.975 0.0222778 162.622 0.0222778C163.269 0.0222778 163.805 0.241653 164.229 0.68042C164.654 1.11923 164.866 1.65515 164.866 2.28813L164.866 30.0392L165.902 30.0392C166.52 30.0392 167.049 30.2586 167.488 30.6973C167.927 31.1361 168.146 31.672 168.146 32.3049C168.146 32.9236 167.927 33.4522 167.488 33.8911C167.049 34.3298 166.52 34.5492 165.902 34.5492L162.6 34.5492C161.982 34.5492 161.457 34.3298 161.025 33.8911C160.593 33.4522 160.377 32.9236 160.377 32.3049ZM177.058 6.08612C177.058 6.81979 176.799 7.4456 176.281 7.9635C175.763 8.4814 175.137 8.74036 174.404 8.74036C173.67 8.74036 173.044 8.4814 172.526 7.9635C172.009 7.4456 171.75 6.81979 171.75 6.08612Q171.75 5.53248 171.946 5.06077Q172.14 4.59472 172.526 4.20865C173.044 3.69073 173.67 3.43179 174.404 3.43179C175.137 3.43179 175.763 3.69073 176.281 4.20865C176.799 4.72655 177.058 5.35237 177.058 6.08612ZM55.3078 22.4648C55.3078 19.7006 56.117 17.2719 57.7353 15.1788C57.5958 14.2415 57.476 13.1381 57.476 12.1121C57.476 10.7122 57.6989 9.45606 58.3983 8.96132C59.6626 8.06714 61.913 9.77132 63.3125 11.0507C64.5798 10.6038 65.9397 10.3803 67.3923 10.3803C68.8472 10.3803 70.2129 10.6084 71.4898 11.0645C72.8826 9.77866 75.1926 7.99477 76.48 8.90529C77.1795 9.40004 77.4023 10.6562 77.4023 12.056C77.4023 13.137 77.2694 14.3037 77.1205 15.2718C78.6913 17.3438 79.4767 19.7414 79.4767 22.4648L79.4767 32.3049C79.4767 32.9236 79.2573 33.4522 78.8185 33.8911C78.3797 34.3298 77.8511 34.5492 77.2324 34.5492C76.5995 34.5492 76.0636 34.3298 75.6248 33.8911C75.1861 33.4522 74.9666 32.9236 74.9666 32.3049L74.9666 31.8734C73.8877 32.7365 72.7151 33.3983 71.4492 33.8587C70.1832 34.3191 68.8309 34.5492 67.3923 34.5492C64.0547 34.5492 61.2062 33.3696 58.8468 31.0102C56.4875 28.6508 55.3078 25.8024 55.3078 22.4648ZM39.0802 32.3049L31.3116 13.6389C31.1677 13.3079 31.0958 12.9698 31.0958 12.6246C31.0958 12.3225 31.1534 12.0348 31.2685 11.7615C31.3836 11.4881 31.5418 11.2471 31.7432 11.0385C31.9447 10.83 32.182 10.6681 32.4553 10.553C32.7287 10.4379 33.0236 10.3803 33.3401 10.3803C33.786 10.3803 34.2033 10.5062 34.5917 10.758C34.9801 11.0097 35.275 11.3802 35.4764 11.8693L41.5403 26.3491L47.604 11.8262C47.7767 11.3946 48.0248 11.0457 48.3485 10.7796C48.6722 10.5134 49.129 10.3803 49.7188 10.3803C50.0353 10.3803 50.3302 10.4379 50.6036 10.553C50.8769 10.6681 51.1143 10.83 51.3156 11.0385C51.5171 11.2471 51.6789 11.4881 51.8012 11.7615Q51.8835 11.9455 51.9289 12.1383Q51.9847 12.3749 51.9847 12.6246C51.9847 12.9411 51.9056 13.2792 51.7472 13.6389L39.3391 43.3968C39.1521 43.8427 38.8644 44.206 38.476 44.4865C38.0876 44.7671 37.6632 44.9073 37.2028 44.9073C36.8069 44.9073 36.4527 44.8267 36.1402 44.6653C35.9417 44.5627 35.76 44.4276 35.5951 44.2599C35.1708 43.8283 34.9585 43.2889 34.9585 42.6415C34.9585 42.2962 35.0305 41.9653 35.1743 41.6488L39.0802 32.3049ZM87.4177 12.603C89.3312 11.1212 91.5825 10.3803 94.1723 10.3803C95.6828 10.3803 97.1174 10.6753 98.4768 11.2651C99.8371 11.8549 101.035 12.657 102.07 13.6712C103.106 14.6855 103.926 15.8795 104.531 17.2534C105.134 18.6273 105.437 20.0911 105.437 21.6448L105.437 32.2834C105.437 32.9163 105.217 33.4522 104.778 33.8911C104.34 34.3298 103.811 34.5492 103.192 34.5492C102.56 34.5492 102.024 34.3298 101.585 33.8911C101.145 33.4522 100.926 32.9163 100.926 32.2834L100.926 21.6448C100.926 20.724 100.747 19.8537 100.387 19.0337C100.027 18.2137 99.5419 17.4979 98.9303 16.8865C98.3195 16.2752 97.6036 15.7896 96.7833 15.4299C95.9631 15.0702 95.0924 14.8905 94.1723 14.8905C93.2371 14.8905 92.363 15.0667 91.5507 15.4191C90.7375 15.7716 90.0215 16.2571 89.4028 16.8758C88.785 17.4944 88.2992 18.2137 87.9463 19.0337C87.5938 19.8537 87.4177 20.724 87.4177 21.6448L87.4177 32.2834C87.4177 32.9163 87.1985 33.4522 86.7601 33.8911C86.5381 34.1129 86.2932 34.2787 86.0253 34.3884C85.7634 34.4956 85.4795 34.5492 85.1737 34.5492C84.5407 34.5492 84.0048 34.3298 83.566 33.8911Q83.2591 33.5841 83.0953 33.2139Q82.9078 32.7901 82.9078 32.2834L82.9078 12.6462C82.9078 12.349 82.9584 12.0718 83.0597 11.8144C83.1692 11.5361 83.338 11.2811 83.566 11.0493C84.0048 10.6033 84.5407 10.3803 85.1737 10.3803C85.7923 10.3803 86.3211 10.6033 86.7601 11.0493C87.1985 11.4953 87.4177 12.0132 87.4177 12.603ZM157.141 22.4648C157.141 25.8312 155.961 28.6797 153.602 31.0102C151.213 33.3696 148.364 34.5492 145.056 34.5492C141.718 34.5492 138.87 33.3696 136.511 31.0102C134.151 28.6508 132.971 25.8024 132.971 22.4648C132.971 19.1272 134.151 16.2788 136.511 13.9194C138.87 11.56 141.718 10.3803 145.056 10.3803C148.364 10.3803 151.213 11.56 153.602 13.9194C154.781 15.0991 155.663 16.401 156.245 17.8252C156.828 19.2495 157.126 20.796 157.141 22.4648ZM172.16 32.2834L172.16 12.6462C172.16 12.0132 172.379 11.4773 172.818 11.0385C173.257 10.5997 173.786 10.3803 174.404 10.3803C175.023 10.3803 175.551 10.5997 175.99 11.0385C176.193 11.2416 176.351 11.4655 176.463 11.7101L176.464 11.7116Q176.659 12.137 176.67 12.6462L176.67 32.2834C176.655 32.9163 176.429 33.4522 175.99 33.8911C175.551 34.3298 175.023 34.5492 174.404 34.5492C173.786 34.5492 173.257 34.3298 172.818 33.8911C172.379 33.4522 172.16 32.9163 172.16 32.2834ZM243.397 28.2349Q244.018 28.2349 244.505 28.4906Q244.793 28.642 245.034 28.8831Q245.275 29.1241 245.427 29.4123Q245.682 29.899 245.682 30.52Q245.682 31.0373 245.494 31.4729Q245.33 31.8513 245.023 32.168Q243.478 33.524 241.679 34.2647Q239.514 35.1562 236.981 35.1562Q234.43 35.1562 232.253 34.2535Q230.08 33.3526 228.28 31.5527Q226.48 29.7528 225.579 27.5801Q224.677 25.403 224.677 22.8516Q224.677 20.3001 225.579 18.123Q226.48 15.9503 228.28 14.1504Q230.08 12.3505 232.253 11.4496Q234.43 10.5469 236.981 10.5469Q239.382 10.5469 241.465 11.3598Q243.767 12.2584 245.682 14.1504Q247.342 15.7896 248.237 17.7737Q248.314 17.9438 248.385 18.1165Q248.403 18.1604 248.421 18.2045Q249.286 20.354 249.286 22.8516Q249.286 23.4408 249.048 23.909Q248.887 24.2266 248.616 24.4885Q248.324 24.7709 247.976 24.9303Q247.524 25.1367 246.979 25.1367L229.576 25.1367Q229.847 26.0109 230.301 26.7758L230.301 26.7761Q230.475 27.0685 230.675 27.345Q231.185 28.0484 231.82 28.6104L231.821 28.6106Q232.088 28.8473 232.378 29.0588Q232.615 29.2321 232.864 29.3866L232.865 29.387Q233.641 29.869 234.531 30.1685Q234.816 30.2641 235.106 30.3366L235.106 30.3367Q236.015 30.564 236.981 30.564Q238.431 30.564 239.64 30.1245Q239.744 30.0866 239.847 30.0455Q240.937 29.6093 241.881 28.8062Q242.212 28.5302 242.593 28.3874Q242.971 28.2458 243.397 28.2349ZM286.112 10.5469Q286.814 10.5469 287.319 10.8618Q287.985 11.2768 288.309 12.2388L292.77 25.6201L297.384 11.8213Q297.449 11.6095 297.563 11.4278Q297.755 11.1196 298.087 10.8984Q298.615 10.5469 299.449 10.5469Q299.886 10.5469 300.27 10.6906Q300.31 10.7058 300.35 10.7227Q300.617 10.8351 300.839 11.0058Q300.965 11.1022 301.075 11.217Q301.146 11.2903 301.211 11.3688L301.212 11.3707Q301.427 11.6329 301.57 11.9531Q301.654 12.1406 301.7 12.337Q301.757 12.5779 301.757 12.832Q301.757 13.2495 301.581 13.7109L294.923 33.6841Q294.829 33.9879 294.66 34.2419Q294.474 34.5204 294.198 34.7388Q293.671 35.1562 292.77 35.1562Q292.306 35.1562 291.906 34.9962Q291.643 34.891 291.408 34.7168Q290.868 34.317 290.674 33.7899Q290.654 33.7376 290.638 33.6841L286.112 20.105L281.586 33.6841Q281.526 33.876 281.431 34.0481L281.43 34.0488Q281.209 34.4473 280.795 34.7388Q280.593 34.881 280.37 34.9748L280.369 34.975Q279.939 35.1562 279.432 35.1562Q278.904 35.1562 278.464 34.9594Q278.263 34.8695 278.081 34.7388Q277.694 34.4615 277.468 34.0872Q277.353 33.8981 277.279 33.6841L270.621 13.7109Q270.468 13.2275 270.468 12.832Q270.468 12.547 270.535 12.2788L270.535 12.2785Q270.576 12.1126 270.643 11.9531Q270.761 11.6748 270.936 11.4404Q271.024 11.3232 271.127 11.217Q271.238 11.1022 271.363 11.0058Q271.585 10.8351 271.852 10.7227Q271.892 10.7058 271.932 10.6906Q272.316 10.5469 272.753 10.5469Q273.53 10.5469 274.063 10.9077Q274.073 10.914 274.082 10.9204Q274.567 11.2571 274.776 11.7189L274.777 11.722Q274.799 11.771 274.818 11.8213L279.432 25.5981L283.893 12.2388Q284.212 11.2933 284.868 10.8762Q285.385 10.5469 286.112 10.5469ZM330.145 22.8516Q330.145 25.5519 329.151 27.8158Q328.253 29.8626 326.542 31.5527Q324.627 33.4447 322.324 34.3433Q320.241 35.1562 317.841 35.1562Q315.289 35.1562 313.112 34.2535Q310.939 33.3527 309.139 31.5527Q307.34 29.7528 306.439 27.5801Q305.536 25.403 305.536 22.8516Q305.536 20.3001 306.439 18.123Q307.34 15.9503 309.139 14.1504Q310.939 12.3505 313.112 11.4496Q315.289 10.5469 317.841 10.5469Q320.241 10.5469 322.324 11.3598Q324.627 12.2584 326.542 14.1504Q328.342 15.9501 329.231 18.1226L329.233 18.1274Q330.123 20.3027 330.145 22.8516ZM338.165 12.832L338.165 13.2715Q339.384 12.2962 340.76 11.6576L340.766 11.655Q341.247 11.4319 341.747 11.25Q343.68 10.5469 345.878 10.5469Q346.845 10.5469 347.954 10.6787Q349.064 10.8105 349.998 11.1511Q350.931 11.4917 351.547 12.085Q351.755 12.2857 351.893 12.5268Q352.162 12.998 352.162 13.623Q352.162 14.0157 352.039 14.3649Q352.01 14.4456 351.975 14.5239Q351.832 14.8441 351.617 15.1064L351.616 15.1083Q351.551 15.1867 351.481 15.26Q351.37 15.3749 351.245 15.4712Q351.023 15.642 350.756 15.7544Q350.716 15.7713 350.675 15.7865Q350.292 15.9302 349.855 15.9302Q349.437 15.9302 348.888 15.6885Q347.504 15.1392 345.878 15.1392Q344.619 15.1392 343.483 15.511L343.482 15.5112L343.478 15.5127Q343.168 15.6143 342.867 15.7434Q341.809 16.1982 340.956 16.902Q340.676 17.1332 340.418 17.3914Q340.159 17.6495 339.928 17.9298Q339.224 18.783 338.77 19.8413Q338.639 20.1441 338.537 20.456Q338.165 21.5929 338.165 22.8516L338.165 32.8711Q338.165 33.3385 338.001 33.7387Q337.834 34.1475 337.495 34.4861Q337.157 34.8247 336.748 34.9922Q336.347 35.1562 335.88 35.1562Q335.364 35.1562 334.932 34.9652Q334.556 34.7984 334.243 34.4861Q333.905 34.1475 333.737 33.7387Q333.573 33.3385 333.573 32.8711L333.573 12.832Q333.573 12.3646 333.737 11.9644Q333.905 11.5557 334.243 11.217Q334.556 10.9047 334.932 10.7379Q335.364 10.5469 335.88 10.5469Q336.347 10.5469 336.748 10.7109Q337.157 10.8784 337.495 11.217Q337.834 11.5557 338.001 11.9644Q338.165 12.3646 338.165 12.832ZM67.3923 14.8905C66.3277 14.8905 65.3351 15.0919 64.4144 15.4947C63.4937 15.8975 62.6952 16.4405 62.019 17.1239C61.3428 17.8072 60.8069 18.6093 60.4114 19.53C60.0158 20.4507 59.818 21.4289 59.818 22.4648C59.818 23.5006 60.0158 24.4788 60.4114 25.3996C60.8069 26.3203 61.3428 27.1223 62.019 27.8057C62.6952 28.489 63.4937 29.0322 64.4144 29.435C65.3351 29.8377 66.3277 30.0392 67.3923 30.0392C68.4425 30.0392 69.428 29.8377 70.3486 29.435C71.2694 29.0322 72.0714 28.4855 72.7547 27.7949C73.4381 27.1043 73.9776 26.3023 74.3731 25.3888C74.7688 24.4753 74.9666 23.5006 74.9666 22.4648C74.9666 21.4289 74.7688 20.4543 74.3731 19.5408C73.9776 18.6273 73.4381 17.8252 72.7547 17.1347C72.0714 16.4442 71.2694 15.8975 70.3486 15.4947C70.1272 15.3978 69.902 15.3126 69.6731 15.239C68.9502 15.0066 68.1899 14.8905 67.3923 14.8905ZM145.056 14.8905C144.169 14.8905 143.331 15.0304 142.544 15.3104Q142.493 15.3287 142.441 15.3477L142.437 15.3494Q142.256 15.4171 142.078 15.4947C141.158 15.8975 140.359 16.4405 139.683 17.1239C139.007 17.8072 138.471 18.6093 138.075 19.53C137.68 20.4507 137.482 21.4289 137.482 22.4648C137.482 23.5006 137.68 24.4788 138.075 25.3996C138.471 26.3203 139.007 27.1223 139.683 27.8057C140.359 28.489 141.158 29.0322 142.078 29.435C142.999 29.8377 143.992 30.0392 145.056 30.0392C146.106 30.0392 147.092 29.8377 148.013 29.435C148.689 29.1388 149.302 28.7649 149.851 28.3133C150.049 28.1506 150.238 27.9778 150.419 27.7949C151.102 27.1043 151.642 26.3023 152.037 25.3888C152.433 24.4753 152.631 23.5006 152.631 22.4648C152.631 21.4289 152.433 20.4543 152.037 19.5408C151.642 18.6273 151.102 17.8252 150.419 17.1347C150.238 16.9519 150.049 16.7791 149.851 16.6164C149.302 16.1648 148.689 15.7908 148.013 15.4947C147.092 15.0919 146.106 14.8905 145.056 14.8905ZM244.386 20.5664Q244.137 19.7596 243.726 19.0459Q243.521 18.6905 243.276 18.3582Q242.71 17.5894 242.001 16.9895Q241.788 16.8093 241.563 16.6443Q241.325 16.471 241.076 16.3165L241.076 16.3161Q240.299 15.8341 239.409 15.5347Q238.931 15.3738 238.44 15.2784Q237.724 15.1392 236.981 15.1392Q236.338 15.1392 235.712 15.2435L235.712 15.2436Q235.119 15.3424 234.542 15.5347Q233.626 15.8402 232.827 16.3359Q232.592 16.4818 232.367 16.6443Q231.996 16.9123 231.662 17.2207Q231.106 17.7337 230.653 18.3582Q230.407 18.6974 230.204 19.0607L230.204 19.061L230.204 19.0613Q229.809 19.7683 229.576 20.5664L244.386 20.5664ZM317.841 15.1392Q316.479 15.1392 315.272 15.5703L315.261 15.5742Q315.032 15.6565 314.808 15.7544Q313.67 16.2526 312.776 17.0319L312.773 17.0345Q312.564 17.2163 312.369 17.4133Q312.159 17.6257 311.967 17.853Q311.214 18.7431 310.732 19.8633Q310.553 20.282 310.426 20.7164Q310.128 21.7407 310.128 22.8516Q310.128 23.9624 310.426 24.9868Q310.553 25.4211 310.732 25.8398Q311.214 26.96 311.967 27.8501Q312.159 28.0775 312.369 28.2898Q312.564 28.4868 312.773 28.6686L312.776 28.6712Q313.67 29.4506 314.808 29.9487Q315.032 30.0467 315.262 30.129L315.272 30.1328Q316.479 30.564 317.841 30.564Q319.059 30.564 320.163 30.209Q320.513 30.0967 320.851 29.9487Q321.888 29.4948 322.729 28.8016Q323.027 28.5553 323.301 28.2788Q323.637 27.9395 323.927 27.5649Q324.539 26.775 324.949 25.8289Q325.107 25.4643 325.223 25.0869Q325.553 24.0202 325.553 22.8516Q325.553 21.683 325.223 20.6162Q325.107 20.2389 324.949 19.8743Q324.539 18.9281 323.927 18.1383Q323.637 17.7637 323.301 17.4243Q323.027 17.1478 322.729 16.9015Q321.888 16.2083 320.851 15.7544Q320.513 15.6065 320.163 15.4941Q319.059 15.1392 317.841 15.1392Z" fill="rgb(255,255,255)" fill-rule="evenodd" />
</svg>
